# xmcd
#
# Track frame offsets:
#	150
#	16952
#	32272
#	48395
#	68257
#	85629
#	102327
#	120737
#	137542
#	149612
#	166702
#	181067
#	200820
#	218850
#	233672
#	250612
#	261675
#	276395
#	290757
#	306655
#	318740
#	330440
#	337710
#
# Disc length: 4629
#
# Revision: 1
# Processed by: cddbd v1.5.1PL0 Copyright (c) Steve Scherf et al.
# Submitted via: CDex 1.50beta9
# Normalized: r0:TDELIM( - )
#
DISCID=4f121317
DTITLE=Various Artist - CDX Volume 171 - Sept 1997
DYEAR=1997
DGENRE=Country
TTITLE0=Kenny Chesney - A Chance
TTITLE1=Paul Brandt - A Little In Love
TTITLE2=John Michael Montgomery - Angel In My Eyes
TTITLE3=Alan Jackson - Between The Devil And Me
TTITLE4=The Buffalo Club - Heart Hold On
TTITLE5=Jim Collins - Helplessly Hopelessly Yours
TTITLE6=Toby Keith and Sting - I'm So Happy I Can't Stop Crying
TTITLE7=Big House - Love Ain't Easy
TTITLE8=Dean Miller - My Heart's Broke Down
TTITLE9=Alabama - Of Course I'm Alright
TTITLE10=Stephen Pride - One Side of the Bed
TTITLE11=Blackhawk - Postmarked Birmingham
TTITLE12=Kentucky Headhunters - See Rock City (Ruby)
TTITLE13=Gene Watson - Someone's Child
TTITLE14=Collin Raye - The Gift
TTITLE15=Keith Gattis - Titanic
TTITLE16=Mindy McCready - What If I Do
TTITLE17=Wynonna - When Love Starts Talkin'
TTITLE18=Joe Diffie - The Promised Land
TTITLE19=The Lynns - Nithgs Like These
TTITLE20=The Lynns - Woman To Woman
TTITLE21=The Lynns - Cry Cry Baby
TTITLE22=The Lynns - It Hurts Me
EXTD=YEAR: 1997
EXTT0=
EXTT1=
EXTT2=
EXTT3=
EXTT4=
EXTT5=
EXTT6=
EXTT7=
EXTT8=
EXTT9=
EXTT10=
EXTT11=
EXTT12=
EXTT13=
EXTT14=
EXTT15=
EXTT16=
EXTT17=
EXTT18=
EXTT19=
EXTT20=
EXTT21=
EXTT22=
PLAYORDER=
